<svg xmlns="http://www.w3.org/2000/svg" viewBox="0 0 12.26 40.64"><defs><style>.cls-1,.cls-2{fill:none;stroke:#000;stroke-miterlimit:2.61;}.cls-1{stroke-width:0.5px;fill-rule:evenodd;}.cls-2{stroke-width:0.48px;}</style></defs><g id="Слой_2" data-name="Слой 2"><g id="Layer_1" data-name="Layer 1"><path class="cls-1" d="M6.13.25A5.88,5.88,0,0,1,12,6.13c0,3.25-2.21,7.48-5.88,13C2.31,13.81.25,9.38.25,6.13A5.88,5.88,0,0,1,6.13.25Z"/><path class="cls-1" d="M6.13,37.68A1.36,1.36,0,1,1,4.77,39,1.36,1.36,0,0,1,6.13,37.68Z"/><path class="cls-1" d="M6.13,3.38A2.28,2.28,0,1,1,3.85,5.66,2.28,2.28,0,0,1,6.13,3.38Z"/><line class="cls-2" x1="6.13" y1="18.25" x2="6.13" y2="37.45"/></g></g></svg>