<?xml-stylesheet href="kusmis.css" type="text/css"?>
<svg xmlns="http://www.w3.org/2000/svg" xml:space="preserve" width="348px" height="169px" version="1.1" style="shape-rendering:geometricPrecision; text-rendering:geometricPrecision; image-rendering:optimizeQuality; fill-rule:evenodd; clip-rule:evenodd"
viewBox="0 0 366.84 178.58"
 xmlns:xlink="http://www.w3.org/1999/xlink">
 <g id="Layer_x0020_1">
  <metadata id="CorelCorpID_0Corel-Layer"/>
  <path class="fil0" d="M0 85.78l0 73.71 1.58 0 0 -73.71 -1.58 0zm4.01 37.65l40.91 36.06 2.43 0 -41.87 -37.01 37.33 -36.7 -2.1 0 -36.7 35.96 0 1.69zm72.45 36.91c12.12,0 25.83,-7.18 25.83,-20.78l0 -53.78 -1.69 0 0 53.68c0,12.86 -12.86,19.19 -24.14,19.19 -11.29,0 -24.15,-6.33 -24.15,-19.09l0 -53.78 -1.69 0 0 53.68c0,13.7 13.6,20.88 25.84,20.88zm82.14 -58.32l1.59 -0.32 -0.11 -0.84c-3.58,-19.09 -33.96,-20.88 -44.71,-6.96 -2.74,3.58 -3.9,7.91 -3.48,12.34 1.9,27.52 43.55,7.49 48.3,29.42 3.05,14.66 -10.87,22.99 -23.73,22.99 -10.02,0 -22.36,-5.59 -23.52,-16.66l-0.1 -0.74 -1.69 0.21 0.11 0.74c1.26,11.91 14.34,18.03 25.09,18.03 14.03,0 28.9,-9.28 25.52,-24.89 -5.06,-23.62 -46.5,-3.37 -48.4,-29.21 -0.32,-4.11 0.63,-8.01 3.27,-11.28 4.43,-5.8 12.34,-8.33 19.3,-8.44 6.64,-0.1 13.92,1.9 18.45,6.75 2.11,2.32 3.38,4.96 4.01,8.02l0.1 0.84zm50.41 -13.92l30.06 44.71 1.37 0 30.05 -44.71 0 71.39 1.58 0 0 -73.82 -1.68 0 -30.69 45.24 -30.58 -45.24 -1.69 0 0 73.82 1.58 0 0 -71.39zm102.5 -2.32c-10.96,0 -22.03,0 -33,0l0 1.48 15.71 0 0 70.65 -15.71 0 0 1.58c10.97,0 22.04,0 33,0l0 -1.58 -15.71 0 0 -70.65 15.71 0 0 -1.48zm51.57 16.24l1.59 -0.32 -0.11 -0.84c-3.59,-19.09 -33.96,-20.88 -44.71,-6.96 -2.75,3.58 -3.91,7.91 -3.48,12.34 1.89,27.52 43.55,7.49 48.3,29.42 3.05,14.66 -10.87,22.99 -23.73,22.99 -10.02,0 -22.36,-5.59 -23.52,-16.66l-0.1 -0.74 -1.69 0.21 0.1 0.74c1.27,11.91 14.35,18.03 25.1,18.03 14.03,0 28.9,-9.28 25.52,-24.89 -5.06,-23.62 -46.5,-3.37 -48.4,-29.21 -0.32,-4.11 0.63,-8.01 3.27,-11.28 4.43,-5.8 12.34,-8.33 19.3,-8.44 6.64,-0.1 13.92,1.9 18.45,6.75 2.11,2.32 3.37,4.96 4.01,8.02l0.1 0.84z"/>
  <path class="fil1 str0" d="M183.42 1.1c14.27,0 25.84,11.57 25.84,25.83 0,14.27 -9.71,32.87 -25.84,57.14 -16.77,-23.41 -25.84,-42.87 -25.84,-57.14 0,-14.26 11.57,-25.83 25.84,-25.83z"/>
  <path class="fil1 str0" d="M183.42 165.58c3.29,0 5.95,2.66 5.95,5.95 0,3.29 -2.66,5.95 -5.95,5.95 -3.29,0 -5.96,-2.66 -5.96,-5.95 0,-3.29 2.67,-5.95 5.96,-5.95z"/>
  <path class="fil1 str0" d="M183.42 14.86c5.53,0 10.02,4.49 10.02,10.02 0,5.53 -4.49,10.02 -10.02,10.02 -5.53,0 -10.02,-4.49 -10.02,-10.02 0,-5.53 4.49,-10.02 10.02,-10.02z"/>
  <line class="fil1 str1" x1="183.42" y1="80.19" x2="183.42" y2= "164.55" />
 </g>
</svg>