<svg xmlns="http://www.w3.org/2000/svg" viewBox="0 0 40.64 12.26"><defs><style>.cls-1,.cls-2{fill:none;stroke:#000;stroke-miterlimit:2.61;}.cls-1{stroke-width:0.5px;fill-rule:evenodd;}.cls-2{stroke-width:0.48px;}</style></defs><g id="Слой_2" data-name="Слой 2"><g id="Layer_1" data-name="Layer 1"><path class="cls-1" d="M40.39,6.13A5.88,5.88,0,0,1,34.51,12c-3.24,0-7.48-2.21-13-5.88,5.33-3.82,9.76-5.88,13-5.88A5.88,5.88,0,0,1,40.39,6.13Z"/><path class="cls-1" d="M3,6.13A1.36,1.36,0,1,1,1.61,4.77,1.36,1.36,0,0,1,3,6.13Z"/><path class="cls-1" d="M37.26,6.13A2.28,2.28,0,1,1,35,3.85,2.28,2.28,0,0,1,37.26,6.13Z"/><line class="cls-2" x1="22.39" y1="6.13" x2="3.19" y2="6.13"/></g></g></svg>